<?xml version="1.0" encoding="UTF-8" standalone="no" ?>
<!DOCTYPE svg PUBLIC "-//W3C//DTD SVG 1.1//EN" "http://www.w3.org/Graphics/SVG/1.1/DTD/svg11.dtd">
<svg xmlns="http://www.w3.org/2000/svg" xmlns:xlink="http://www.w3.org/1999/xlink" version="1.1" width="1080" height="1080" viewBox="0 0 1080 1080" xml:space="preserve">
<desc>Created with Fabric.js 4.2.0</desc>
<defs>
</defs>
<g transform="matrix(1 0 0 1 540 540)" id="2afc2983-8054-4281-930e-139f79fb0596"  >
</g>
<g transform="matrix(1 0 0 1 540 540)" id="026a36ef-5984-46be-ae16-70fca94f4bf3"  >
<rect style="stroke: none; stroke-width: 1; stroke-dasharray: none; stroke-linecap: butt; stroke-dashoffset: 0; stroke-linejoin: miter; stroke-miterlimit: 4; fill: rgb(255,255,255); fill-rule: nonzero; opacity: 1;" vector-effect="non-scaling-stroke"  x="-540" y="-540" rx="0" ry="0" width="1080" height="1080" />
</g>
<g transform="matrix(1 0 0 1 540 540)"  >
<path style="stroke: rgb(0,0,0); stroke-width: 0; stroke-dasharray: none; stroke-linecap: butt; stroke-dashoffset: 0; stroke-linejoin: miter; stroke-miterlimit: 4; fill: rgb(0,0,0); fill-rule: nonzero; opacity: 1;" vector-effect="non-scaling-stroke"  transform=" translate(-8, -8)" d="M 15 2 C 15 1.4477152501692065 14.552284749830793 1 14 1 L 2 1 C 1.4477152501692065 1 1 1.4477152501692065 1 2 L 1 14 C 1 14.552284749830793 1.4477152501692065 15 2 15 L 14 15 C 14.552284749830793 15 15 14.552284749830793 15 14 L 15 2 z M 0 2 C 0 0.8954305003384131 0.8954305003384131 0 2 0 L 14 0 C 15.104569499661586 0 16 0.8954305003384126 16 1.9999999999999996 L 16 14 C 16 15.104569499661586 15.104569499661586 16 14 16 L 2 16 C 0.8954305003384131 16 0 15.104569499661586 0 14 L 0 2 z M 11.5 7.5 C 11.776142374915397 7.5 12 7.723857625084603 12 8 C 12 8.276142374915397 11.776142374915397 8.5 11.5 8.5 L 5.707 8.5 L 7.853999999999999 10.646 C 8.0495088014401 10.841508801440101 8.0495088014401 11.1584911985599 7.853999999999999 11.354000000000001 C 7.658491198559898 11.549508801440101 7.341508801440101 11.549508801440101 7.145999999999999 11.354000000000001 L 4.145999999999999 8.354000000000001 C 4.051958299312364 8.260195736989834 3.9991062163145803 8.132827260858242 3.9991062163145803 8 C 3.9991062163145803 7.867172739141759 4.051958299312364 7.739804263010168 4.145999999999999 7.646000000000001 L 7.145999999999999 4.646000000000001 C 7.3415088014401 4.4504911985599 7.658491198559898 4.4504911985599 7.853999999999999 4.646000000000001 C 8.0495088014401 4.841508801440102 8.0495088014401 5.1584911985599 7.853999999999999 5.354000000000001 L 5.707 7.5 L 11.5 7.5 z" stroke-linecap="round" />
</g>
<g transform="matrix(27 0 0 27 540 540)" id="4e9f5e13-55ce-4761-b21a-2a3b79aba562"  >
<path style="stroke: rgb(0,0,0); stroke-width: 0; stroke-dasharray: none; stroke-linecap: butt; stroke-dashoffset: 0; stroke-linejoin: miter; stroke-miterlimit: 4; fill: rgb(104,176,171); fill-rule: nonzero; opacity: 1;" vector-effect="non-scaling-stroke"  transform=" translate(-8, -8)" d="M 15 2 C 15 1.4477152501692065 14.552284749830793 1 14 1 L 2 1 C 1.4477152501692065 1 1 1.4477152501692065 1 2 L 1 14 C 1 14.552284749830793 1.4477152501692065 15 2 15 L 14 15 C 14.552284749830793 15 15 14.552284749830793 15 14 L 15 2 z M 0 2 C 0 0.8954305003384131 0.8954305003384131 0 2 0 L 14 0 C 15.104569499661586 0 16 0.8954305003384126 16 1.9999999999999996 L 16 14 C 16 15.104569499661586 15.104569499661586 16 14 16 L 2 16 C 0.8954305003384131 16 0 15.104569499661586 0 14 L 0 2 z M 11.5 7.5 C 11.776142374915397 7.5 12 7.723857625084603 12 8 C 12 8.276142374915397 11.776142374915397 8.5 11.5 8.5 L 5.707 8.5 L 7.853999999999999 10.646 C 8.0495088014401 10.841508801440101 8.0495088014401 11.1584911985599 7.853999999999999 11.354000000000001 C 7.658491198559898 11.549508801440101 7.341508801440101 11.549508801440101 7.145999999999999 11.354000000000001 L 4.145999999999999 8.354000000000001 C 4.051958299312364 8.260195736989834 3.9991062163145803 8.132827260858242 3.9991062163145803 8 C 3.9991062163145803 7.867172739141759 4.051958299312364 7.739804263010168 4.145999999999999 7.646000000000001 L 7.145999999999999 4.646000000000001 C 7.3415088014401 4.4504911985599 7.658491198559898 4.4504911985599 7.853999999999999 4.646000000000001 C 8.0495088014401 4.841508801440102 8.0495088014401 5.1584911985599 7.853999999999999 5.354000000000001 L 5.707 7.5 L 11.5 7.5 z" stroke-linecap="round" />
</g>
</svg>